<svg xmlns="http://www.w3.org/2000/svg" xmlns:xlink="http://www.w3.org/1999/xlink" width="500" zoomAndPan="magnify" viewBox="0 0 375 374.999991" height="500" preserveAspectRatio="xMidYMid meet" version="1.0"><defs><clipPath id="1ea182b740"><path d="M 3 63 L 372 63 L 372 312.328125 L 3 312.328125 Z M 3 63 " clip-rule="nonzero"/></clipPath></defs><g clip-path="url(#1ea182b740)"><path fill="#ff0000" d="M 81.644531 63.117188 C 15.199219 63.117188 8.46875 97.886719 5.171875 142.601562 C 2.925781 173.050781 3.644531 203.125 5.171875 233.488281 C 7.421875 278.269531 15.199219 312.972656 81.644531 312.972656 C 152.40625 312.972656 223.171875 312.972656 293.9375 312.972656 C 360.378906 312.972656 367.109375 278.207031 370.410156 233.488281 C 372.65625 203.039062 371.933594 172.964844 370.410156 142.601562 C 368.160156 97.820312 360.378906 63.117188 293.9375 63.117188 C 223.171875 63.117188 152.40625 63.117188 81.644531 63.117188 Z M 81.644531 63.117188 " fill-opacity="1" fill-rule="nonzero"/></g><path fill="#ffffff" d="M 152.492188 241.738281 L 245.070312 188.699219 L 152.492188 135.664062 Z M 152.492188 241.738281 " fill-opacity="1" fill-rule="nonzero"/><path stroke-linecap="butt" transform="matrix(0.75, 0, 0, 0.75, 91.271183, 74.135592)" fill="none" stroke-linejoin="miter" d="M -0.00220168 2.001503 L 159.997809 2.001503 " stroke="#ff0000" stroke-width="4" stroke-opacity="1" stroke-miterlimit="4"/></svg>