<svg xmlns="http://www.w3.org/2000/svg" xmlns:xlink="http://www.w3.org/1999/xlink" width="500" zoomAndPan="magnify" viewBox="0 0 375 374.999991" height="500" preserveAspectRatio="xMidYMid meet" version="1.0"><defs><clipPath id="d377a2b69d"><path d="M 0 103.875 L 278.300781 103.875 L 278.300781 271.125 L 0 271.125 Z M 0 103.875 " clip-rule="nonzero"/></clipPath><clipPath id="cca79e8066"><path d="M 305.402344 0 L 357.519531 0 L 357.519531 73.902344 L 305.402344 73.902344 Z M 305.402344 0 " clip-rule="nonzero"/></clipPath><clipPath id="92703c6a25"><path d="M 322.652344 0 L 340.269531 0 C 344.847656 0 349.234375 1.816406 352.46875 5.050781 C 355.703125 8.289062 357.519531 12.675781 357.519531 17.25 L 357.519531 56.480469 C 357.519531 61.054688 355.703125 65.441406 352.46875 68.675781 C 349.234375 71.910156 344.847656 73.730469 340.269531 73.730469 L 322.652344 73.730469 C 318.078125 73.730469 313.691406 71.910156 310.453125 68.675781 C 307.21875 65.441406 305.402344 61.054688 305.402344 56.480469 L 305.402344 17.25 C 305.402344 12.675781 307.21875 8.289062 310.453125 5.050781 C 313.691406 1.816406 318.078125 0 322.652344 0 Z M 322.652344 0 " clip-rule="nonzero"/></clipPath></defs><rect x="-37.5" width="450" fill="#ffffff" y="-37.499999" height="449.999989" fill-opacity="1"/><rect x="-37.5" width="450" fill="#ff3131" y="-37.499999" height="449.999989" fill-opacity="1"/><g clip-path="url(#d377a2b69d)"><path fill="#ffffff" d="M 245.960938 196.710938 L 205.507812 220.066406 C 198.421875 224.160156 189.5625 219.042969 189.5625 210.859375 L 189.5625 164.152344 C 189.5625 155.96875 198.421875 150.851562 205.507812 154.945312 L 245.960938 178.296875 C 253.046875 182.390625 253.046875 192.621094 245.960938 196.710938 Z M 194.671875 103.875 C 187.171875 103.875 179.902344 104.867188 172.988281 106.71875 L 229.460938 115.851562 L 81.371094 115.851562 L 141.785156 122.722656 C 135.867188 127.5625 130.621094 133.191406 126.21875 139.457031 L 176.03125 146.171875 L 38.109375 146.171875 L 118.882812 152.113281 C 115.183594 160.023438 112.6875 168.601562 111.625 177.625 L 185.59375 185.261719 L -21.53125 185.261719 L 111.738281 198.328125 C 113.433594 211.464844 118.183594 223.648438 125.246094 234.144531 L 176.03125 240.988281 L 49.292969 240.988281 L 140.328125 251.070312 C 146.457031 256.3125 153.355469 260.683594 160.824219 263.996094 C 163.820312 264.410156 166.867188 264.667969 169.960938 264.746094 C 211.960938 265.828125 247.292969 234.65625 252.234375 193.773438 C 252.417969 196.195312 252.480469 198.648438 252.417969 201.128906 C 251.484375 237.570312 223.652344 266.992188 188.410156 270.902344 C 190.476562 271.054688 192.5625 271.136719 194.671875 271.136719 C 240.859375 271.136719 278.300781 233.691406 278.300781 187.503906 C 278.300781 141.316406 240.859375 103.875 194.671875 103.875 " fill-opacity="1" fill-rule="nonzero"/></g><g clip-path="url(#cca79e8066)"><g clip-path="url(#92703c6a25)"><path fill="#ff3131" d="M 305.402344 0 L 357.519531 0 L 357.519531 73.699219 L 305.402344 73.699219 Z M 305.402344 0 " fill-opacity="1" fill-rule="nonzero"/></g></g></svg>